<?xml version="1.0" encoding="UTF-8" standalone="no"?><!DOCTYPE svg PUBLIC "-//W3C//DTD SVG 1.1//EN" "http://www.w3.org/Graphics/SVG/1.1/DTD/svg11.dtd"><svg width="100%" height="100%" viewBox="0 0 267 267" version="1.1" xmlns="http://www.w3.org/2000/svg" xmlns:xlink="http://www.w3.org/1999/xlink" xml:space="preserve" xmlns:serif="http://www.serif.com/" style="fill-rule:evenodd;clip-rule:evenodd;stroke-linejoin:round;stroke-miterlimit:2;"><g><path d="M133.15,258.51c-69.13,0 -125.37,-56.24 -125.37,-125.37c-0,-69.13 56.24,-125.37 125.37,-125.37c69.12,0 125.36,56.24 125.36,125.37c-0,69.13 -56.24,125.37 -125.36,125.37Zm0,-258.34c-73.32,0 -132.97,59.65 -132.97,132.97c-0,73.32 59.65,132.97 132.97,132.97c73.31,-0 132.96,-59.65 132.96,-132.97c0,-73.32 -59.65,-132.97 -132.96,-132.97Z" style="fill:#030404;fill-rule:nonzero;"/><path d="M82.05,129.51c20.66,0 37.41,-16.75 37.41,-37.42c-0,-20.66 -16.75,-37.41 -37.41,-37.41c-20.67,0 -37.42,16.75 -37.42,37.41c0,20.67 16.75,37.42 37.42,37.42Z" style="fill:#030404;fill-rule:nonzero;"/><path d="M184.25,54.68c-20.67,0 -37.42,16.75 -37.42,37.41c0,20.67 16.75,37.42 37.42,37.42c20.66,0 37.41,-16.75 37.41,-37.42c0,-20.66 -16.75,-37.41 -37.41,-37.41Z" style="fill:#030404;fill-rule:nonzero;"/><path d="M213.15,146.88c-2.94,-0 -5.33,2.38 -5.33,5.32c0,41.18 -33.5,74.68 -74.67,74.68c-41.18,-0 -74.68,-33.5 -74.68,-74.68c-0,-2.94 -2.39,-5.32 -5.32,-5.32c-2.94,-0 -5.32,2.38 -5.32,5.32c0,47.05 38.27,85.32 85.32,85.32c47.04,0 85.32,-38.27 85.32,-85.32c-0,-2.94 -2.39,-5.32 -5.32,-5.32Z" style="fill:#030404;fill-rule:nonzero;"/></g></svg>