<?xml version="1.0" encoding="UTF-8" standalone="no"?>
<!DOCTYPE svg PUBLIC "-//W3C//DTD SVG 1.1//EN" "http://www.w3.org/Graphics/SVG/1.1/DTD/svg11.dtd">
<svg width="100%" height="100%" viewBox="0 0 150 145" version="1.1" xmlns="http://www.w3.org/2000/svg" xmlns:xlink="http://www.w3.org/1999/xlink" xml:space="preserve" xmlns:serif="http://www.serif.com/" style="fill-rule:evenodd;clip-rule:evenodd;stroke-linejoin:round;stroke-miterlimit:2;">
    <g transform="matrix(1,0,0,1,-442,-285)">
        <g transform="matrix(0.4,0,0,0.4,0,0)">
            <g opacity="0.75">
                <g transform="matrix(173.667,0,0,-173.667,1198.35,843.594)">
                    <path d="M0.957,-0.045L0.892,0.005L0.819,-0.051L0.819,0.092L0,0.092L0,-0.001L0.35,-0.001C0.391,-0.001 0.432,-0.017 0.464,-0.046C0.496,-0.076 0.536,-0.092 0.578,-0.092L1,-0.092L1,0.092L0.957,0.092L0.957,-0.045Z" style="fill:url(#_Linear1);fill-rule:nonzero;"/>
                </g>
                <g transform="matrix(346,0,0,-346,1112.18,893)">
                    <path d="M0.8,-0.184C0.8,-0.195 0.792,-0.203 0.782,-0.203L0.218,-0.203C0.208,-0.203 0.2,-0.195 0.2,-0.184L0.2,0.142L0.235,0.142L0.235,0.203L0.765,0.203L0.765,0.097L0.8,0.097L0.8,-0.184ZM0.5,0.5C0.224,0.5 -0,0.276 -0,0C-0,-0.276 0.224,-0.5 0.5,-0.5C0.776,-0.5 1,-0.276 1,0C1,0.276 0.776,0.5 0.5,0.5Z" style="fill:url(#_Linear2);fill-rule:nonzero;"/>
                </g>
            </g>
        </g>
    </g>
    <defs>
        <linearGradient id="_Linear1" x1="0" y1="0" x2="1" y2="0" gradientUnits="userSpaceOnUse" gradientTransform="matrix(1,0,0,-1,0,-1.20345e-06)"><stop offset="0" style="stop-color:white;stop-opacity:1"/><stop offset="1" style="stop-color:rgb(196,198,200);stop-opacity:1"/></linearGradient>
        <linearGradient id="_Linear2" x1="0" y1="0" x2="1" y2="0" gradientUnits="userSpaceOnUse" gradientTransform="matrix(1,0,0,-1,0,0)"><stop offset="0" style="stop-color:white;stop-opacity:1"/><stop offset="1" style="stop-color:rgb(196,198,200);stop-opacity:1"/></linearGradient>
    </defs>
</svg>
