<?xml version="1.0" encoding="UTF-8" standalone="no"?>
<!DOCTYPE svg PUBLIC "-//W3C//DTD SVG 1.1//EN" "http://www.w3.org/Graphics/SVG/1.1/DTD/svg11.dtd">
<svg width="100%" height="100%" viewBox="0 0 150 145" version="1.1" xmlns="http://www.w3.org/2000/svg" xmlns:xlink="http://www.w3.org/1999/xlink" xml:space="preserve" xmlns:serif="http://www.serif.com/" style="fill-rule:evenodd;clip-rule:evenodd;stroke-linejoin:round;stroke-miterlimit:2;">
    <g transform="matrix(1,0,0,1,-280,-285)">
        <g transform="matrix(0.4,0,0,0.4,0,0)">
            <g opacity="0.75">
                <g transform="matrix(38.5405,0,0,-38.5405,826.161,902.061)">
                    <path d="M0,-0.518L1,-0.518L0.494,0.518L0,-0.518Z" style="fill:url(#_Linear1);fill-rule:nonzero;"/>
                </g>
                <g transform="matrix(346,0,0,-346,709.19,895.675)">
                    <path d="M0.799,-0.214L0.671,-0.214L0.671,0.121L0.799,0.121L0.799,-0.214ZM0.656,0.281L0.622,0.294L0.656,0.307L0.669,0.341L0.682,0.307L0.716,0.294L0.682,0.281L0.669,0.247L0.656,0.281ZM0.517,-0.214L0.49,-0.16L0.299,-0.16L0.273,-0.214L0.143,-0.214L0.309,0.121L0.481,0.121L0.657,-0.214L0.517,-0.214ZM0.471,0.278L0.491,0.333L0.511,0.278L0.566,0.258L0.511,0.238L0.491,0.183L0.471,0.238L0.416,0.258L0.471,0.278ZM0.598,0.194L0.61,0.161L0.644,0.148L0.61,0.136L0.598,0.102L0.586,0.136L0.552,0.148L0.586,0.161L0.598,0.194ZM0.5,0.5C0.224,0.5 -0,0.276 -0,0C-0,-0.276 0.224,-0.5 0.5,-0.5C0.776,-0.5 1,-0.276 1,0C1,0.276 0.776,0.5 0.5,0.5Z" style="fill:url(#_Linear2);fill-rule:nonzero;"/>
                </g>
            </g>
        </g>
    </g>
    <defs>
        <linearGradient id="_Linear1" x1="0" y1="0" x2="1" y2="0" gradientUnits="userSpaceOnUse" gradientTransform="matrix(1,0,0,-1,0,-1.82665e-06)"><stop offset="0" style="stop-color:white;stop-opacity:1"/><stop offset="1" style="stop-color:rgb(196,198,200);stop-opacity:1"/></linearGradient>
        <linearGradient id="_Linear2" x1="0" y1="0" x2="1" y2="0" gradientUnits="userSpaceOnUse" gradientTransform="matrix(1,0,0,-1,0,1.1289e-06)"><stop offset="0" style="stop-color:white;stop-opacity:1"/><stop offset="1" style="stop-color:rgb(196,198,200);stop-opacity:1"/></linearGradient>
    </defs>
</svg>
