<?xml version="1.0" encoding="UTF-8" standalone="no"?>
<!DOCTYPE svg PUBLIC "-//W3C//DTD SVG 1.1//EN" "http://www.w3.org/Graphics/SVG/1.1/DTD/svg11.dtd">
<svg width="100%" height="100%" viewBox="0 0 150 145" version="1.1" xmlns="http://www.w3.org/2000/svg" xmlns:xlink="http://www.w3.org/1999/xlink" xml:space="preserve" xmlns:serif="http://www.serif.com/" style="fill-rule:evenodd;clip-rule:evenodd;stroke-linejoin:round;stroke-miterlimit:2;">
    <g transform="matrix(1,0,0,1,-120,-285)">
        <g transform="matrix(0.4,0,0,0.4,0,0)">
            <g opacity="0.75">
                <g transform="matrix(7.52637,0,0,-7.52637,429.201,904.636)">
                    <path d="M0,-0.324C1.195,-0.812 0.941,0.442 1,1.191L0.17,1.191L0,-0.324Z" style="fill:url(#_Linear1);fill-rule:nonzero;"/>
                </g>
                <g transform="matrix(-14.7496,12.2318,12.2318,14.7496,386.201,869.589)">
                    <path d="M0.783,-0.135L1.037,-0.135L0.268,0.503L0.34,-0.177L0.783,-0.135Z" style="fill:url(#_Linear2);fill-rule:nonzero;"/>
                </g>
                <g transform="matrix(22.8276,0,0,-22.8276,430.896,896.09)">
                    <path d="M0,0.729L0,0.419L0.712,0.419C0.681,0.036 0.714,-0.358 0.602,-0.729C0.742,-0.633 0.892,-0.541 1,-0.408C0.874,-0.042 0.817,0.343 0.803,0.729L0,0.729Z" style="fill:url(#_Linear3);fill-rule:nonzero;"/>
                </g>
                <g transform="matrix(22.8279,0,0,-22.8279,567.526,896.09)">
                    <path d="M0,0.729L0,0.419L0.712,0.419C0.681,0.036 0.714,-0.358 0.602,-0.729C0.742,-0.633 0.892,-0.541 1,-0.408C0.874,-0.042 0.817,0.343 0.803,0.729L0,0.729Z" style="fill:url(#_Linear4);fill-rule:nonzero;"/>
                </g>
                <g transform="matrix(-27.4927,0,0,27.4927,392.571,907.948)">
                    <rect x="-0" y="-0.174" width="1" height="0.348" style="fill:url(#_Linear5);"/>
                </g>
                <g transform="matrix(7.52637,0,0,-7.52637,565.831,904.636)">
                    <path d="M-0,-0.324C1.195,-0.812 0.941,0.442 1,1.191L0.17,1.191L-0,-0.324Z" style="fill:url(#_Linear6);fill-rule:nonzero;"/>
                </g>
                <g transform="matrix(346,0,0,-346,308.281,893)">
                    <path d="M0.829,-0.063C0.817,-0.074 0.804,-0.084 0.789,-0.092C0.786,-0.083 0.78,-0.075 0.775,-0.069L0.747,-0.07C0.747,-0.066 0.746,-0.061 0.745,-0.057C0.745,-0.055 0.744,-0.05 0.742,-0.05C0.74,-0.066 0.734,-0.081 0.725,-0.094L0.701,-0.07C0.71,-0.055 0.714,-0.038 0.717,-0.021C0.72,0.008 0.72,0.039 0.718,0.068L0.801,0.067L0.8,0.091L0.831,0.091L0.832,0.089C0.832,0.089 0.831,0.088 0.831,0.088L0.831,0.067L0.85,0.067L0.836,0.078L0.854,0.094C0.857,0.094 0.878,0.08 0.878,0.077L0.868,0.067C0.874,0.066 0.881,0.068 0.885,0.068C0.886,0.068 0.887,0.067 0.888,0.066L0.888,0.038L0.832,0.039C0.832,0.024 0.834,0.009 0.837,-0.005L0.845,0.011L0.85,0.03L0.879,0.02C0.872,-0.001 0.862,-0.021 0.849,-0.039C0.852,-0.045 0.856,-0.051 0.862,-0.056C0.864,-0.057 0.865,-0.05 0.865,-0.049C0.867,-0.043 0.867,-0.037 0.868,-0.032L0.891,-0.049C0.888,-0.06 0.887,-0.075 0.879,-0.084C0.862,-0.105 0.84,-0.077 0.829,-0.063ZM0.689,-0.091L0.511,-0.091L0.511,-0.061L0.586,-0.062L0.586,-0.029L0.534,-0.031L0.534,-0.002L0.586,-0.002L0.586,0.027L0.551,0.027C0.543,0.014 0.536,-0.001 0.524,-0.013C0.517,-0.004 0.512,0.005 0.504,0.012C0.523,0.032 0.535,0.058 0.539,0.085L0.569,0.079L0.563,0.055L0.586,0.055L0.584,0.091L0.618,0.091L0.617,0.055L0.682,0.056L0.682,0.026L0.617,0.027L0.617,-0.002L0.669,-0.002C0.67,-0.002 0.672,0 0.673,-0.001L0.673,-0.031L0.617,-0.029L0.617,-0.062L0.689,-0.061L0.689,-0.091ZM0.484,-0.084C0.468,-0.105 0.445,-0.077 0.434,-0.063C0.422,-0.074 0.409,-0.084 0.394,-0.092C0.391,-0.083 0.386,-0.075 0.38,-0.069L0.352,-0.07C0.352,-0.066 0.351,-0.061 0.35,-0.057C0.35,-0.055 0.349,-0.05 0.347,-0.05C0.345,-0.066 0.339,-0.081 0.33,-0.094L0.306,-0.07C0.315,-0.055 0.32,-0.038 0.322,-0.021C0.325,0.008 0.325,0.039 0.323,0.068L0.406,0.067L0.405,0.091L0.436,0.091L0.437,0.089C0.437,0.089 0.436,0.088 0.436,0.088L0.436,0.067L0.456,0.067L0.441,0.078L0.459,0.094C0.463,0.094 0.483,0.08 0.483,0.077L0.474,0.067C0.479,0.066 0.486,0.068 0.49,0.068C0.492,0.068 0.492,0.067 0.493,0.066L0.493,0.038L0.437,0.039C0.437,0.024 0.439,0.009 0.442,-0.005L0.45,0.011L0.456,0.03L0.484,0.02C0.477,-0.001 0.467,-0.021 0.454,-0.039C0.458,-0.045 0.461,-0.051 0.467,-0.056C0.469,-0.057 0.47,-0.05 0.471,-0.049C0.472,-0.043 0.472,-0.037 0.474,-0.032L0.496,-0.049C0.494,-0.06 0.492,-0.075 0.484,-0.084ZM0.286,0.007L0.261,0.019C0.258,0.02 0.26,0.011 0.259,0.009L0.15,0.009L0.149,0.02L0.122,0.008C0.121,0.019 0.113,0.027 0.109,0.037C0.139,0.046 0.168,0.064 0.186,0.09L0.22,0.09C0.238,0.065 0.269,0.048 0.298,0.038L0.286,0.007ZM0.275,-0.093L0.244,-0.093L0.244,-0.085L0.164,-0.085L0.164,-0.093L0.133,-0.093L0.133,-0.002L0.275,-0.002L0.275,-0.093ZM0.5,0.5C0.224,0.5 -0,0.276 -0,0C-0,-0.276 0.224,-0.5 0.5,-0.5C0.776,-0.5 1,-0.276 1,0C1,0.276 0.776,0.5 0.5,0.5Z" style="fill:url(#_Linear7);fill-rule:nonzero;"/>
                </g>
            </g>
        </g>
    </g>
    <defs>
        <linearGradient id="_Linear1" x1="0" y1="0" x2="1" y2="0" gradientUnits="userSpaceOnUse" gradientTransform="matrix(1,0,0,-1,0,0.378536)"><stop offset="0" style="stop-color:white;stop-opacity:1"/><stop offset="1" style="stop-color:rgb(196,198,200);stop-opacity:1"/></linearGradient>
        <linearGradient id="_Linear2" x1="0" y1="0" x2="1" y2="0" gradientUnits="userSpaceOnUse" gradientTransform="matrix(-0.769748,0.638348,0.638348,0.769748,0.884889,-0.319179)"><stop offset="0" style="stop-color:white;stop-opacity:1"/><stop offset="1" style="stop-color:rgb(196,198,200);stop-opacity:1"/></linearGradient>
        <linearGradient id="_Linear3" x1="0" y1="0" x2="1" y2="0" gradientUnits="userSpaceOnUse" gradientTransform="matrix(1,0,0,-1,0,-2.80625e-05)"><stop offset="0" style="stop-color:white;stop-opacity:1"/><stop offset="1" style="stop-color:rgb(196,198,200);stop-opacity:1"/></linearGradient>
        <linearGradient id="_Linear4" x1="0" y1="0" x2="1" y2="0" gradientUnits="userSpaceOnUse" gradientTransform="matrix(1,0,0,-1,0,-2.80622e-05)"><stop offset="0" style="stop-color:white;stop-opacity:1"/><stop offset="1" style="stop-color:rgb(196,198,200);stop-opacity:1"/></linearGradient>
        <linearGradient id="_Linear5" x1="0" y1="0" x2="1" y2="0" gradientUnits="userSpaceOnUse" gradientTransform="matrix(-1,0,-0,1,0.999969,0)"><stop offset="0" style="stop-color:white;stop-opacity:1"/><stop offset="1" style="stop-color:rgb(196,198,200);stop-opacity:1"/></linearGradient>
        <linearGradient id="_Linear6" x1="0" y1="0" x2="1" y2="0" gradientUnits="userSpaceOnUse" gradientTransform="matrix(1,0,0,-1,0,0.378536)"><stop offset="0" style="stop-color:white;stop-opacity:1"/><stop offset="1" style="stop-color:rgb(196,198,200);stop-opacity:1"/></linearGradient>
        <linearGradient id="_Linear7" x1="0" y1="0" x2="1" y2="0" gradientUnits="userSpaceOnUse" gradientTransform="matrix(1,0,0,-1,0,0)"><stop offset="0" style="stop-color:white;stop-opacity:1"/><stop offset="1" style="stop-color:rgb(196,198,200);stop-opacity:1"/></linearGradient>
    </defs>
</svg>
