<?xml version="1.0" encoding="UTF-8" standalone="no"?>
<!DOCTYPE svg PUBLIC "-//W3C//DTD SVG 1.1//EN" "http://www.w3.org/Graphics/SVG/1.1/DTD/svg11.dtd">
<svg width="100%" height="100%" viewBox="0 0 150 145" version="1.1" xmlns="http://www.w3.org/2000/svg" xmlns:xlink="http://www.w3.org/1999/xlink" xml:space="preserve" xmlns:serif="http://www.serif.com/" style="fill-rule:evenodd;clip-rule:evenodd;stroke-linejoin:round;stroke-miterlimit:2;">
    <g transform="matrix(1,0,0,1,-602,-285)">
        <g transform="matrix(0.4,0,0,0.4,0,0)">
            <g opacity="0.75">
                <g transform="matrix(229.898,0,0,-229.898,1571.23,893)">
                    <path d="M0.498,0.197C0.458,0.197 0.425,0.229 0.425,0.27C0.425,0.31 0.458,0.343 0.498,0.343C0.538,0.343 0.571,0.31 0.571,0.27C0.571,0.229 0.538,0.197 0.498,0.197ZM0.571,-0.266C0.571,-0.306 0.538,-0.339 0.498,-0.339C0.458,-0.339 0.425,-0.306 0.425,-0.266L0.425,0.073C0.425,0.113 0.458,0.146 0.498,0.146C0.538,0.146 0.571,0.113 0.571,0.073L0.571,-0.266ZM0.5,0.5C0.224,0.5 0,0.276 0,0C0,-0.276 0.224,-0.5 0.5,-0.5C0.776,-0.5 1,-0.276 1,0C1,0.276 0.776,0.5 0.5,0.5Z" style="fill:url(#_Linear1);fill-rule:nonzero;"/>
                </g>
                <g transform="matrix(342,0,0,-342,1515.17,893)">
                    <path d="M0.5,-0.363C0.3,-0.363 0.137,-0.2 0.137,-0C0.137,0.2 0.3,0.363 0.5,0.363C0.7,0.363 0.863,0.2 0.863,-0C0.863,-0.2 0.7,-0.363 0.5,-0.363ZM0.5,0.5C0.224,0.5 0,0.276 0,-0C0,-0.276 0.224,-0.5 0.5,-0.5C0.776,-0.5 1,-0.276 1,-0C1,0.276 0.776,0.5 0.5,0.5Z" style="fill:url(#_Linear2);fill-rule:nonzero;"/>
                </g>
            </g>
        </g>
    </g>
    <defs>
        <linearGradient id="_Linear1" x1="0" y1="0" x2="1" y2="0" gradientUnits="userSpaceOnUse" gradientTransform="matrix(1,0,0,-1,0,8.88178e-16)"><stop offset="0" style="stop-color:white;stop-opacity:1"/><stop offset="1" style="stop-color:rgb(196,198,200);stop-opacity:1"/></linearGradient>
        <linearGradient id="_Linear2" x1="0" y1="0" x2="1" y2="0" gradientUnits="userSpaceOnUse" gradientTransform="matrix(1,0,0,-1,0,-4.44089e-16)"><stop offset="0" style="stop-color:white;stop-opacity:1"/><stop offset="1" style="stop-color:rgb(196,198,200);stop-opacity:1"/></linearGradient>
    </defs>
</svg>
