<?xml version="1.0" encoding="UTF-8" standalone="no"?>
<!DOCTYPE svg PUBLIC "-//W3C//DTD SVG 1.1//EN" "http://www.w3.org/Graphics/SVG/1.1/DTD/svg11.dtd">
<svg width="100%" height="100%" viewBox="0 0 155 145" version="1.1" xmlns="http://www.w3.org/2000/svg" xmlns:xlink="http://www.w3.org/1999/xlink" xml:space="preserve" xmlns:serif="http://www.serif.com/" style="fill-rule:evenodd;clip-rule:evenodd;stroke-linejoin:round;stroke-miterlimit:2;">
    <g transform="matrix(1,0,0,1,-760,-285)">
        <g transform="matrix(0.4,0,0,0.4,0,0)">
            <g opacity="0.75">
                <g transform="matrix(342,0,0,-342,1909.72,893)">
                    <path d="M0.789,-0.026L0.732,-0.133C0.73,-0.138 0.724,-0.141 0.718,-0.141L0.711,-0.141C0.703,-0.141 0.696,-0.135 0.695,-0.127L0.686,-0.02C0.685,-0.011 0.692,-0.003 0.702,-0.003L0.705,-0.003C0.714,-0.003 0.721,-0.01 0.721,-0.019L0.722,-0.061C0.722,-0.069 0.733,-0.072 0.737,-0.064L0.761,-0.012C0.763,-0.006 0.769,-0.003 0.775,-0.003C0.787,-0.003 0.795,-0.016 0.789,-0.026ZM0.676,-0.017C0.675,-0.023 0.67,-0.027 0.664,-0.027L0.651,-0.027C0.645,-0.027 0.64,-0.03 0.639,-0.036L0.617,-0.132C0.616,-0.138 0.611,-0.141 0.606,-0.141L0.596,-0.141C0.589,-0.141 0.583,-0.134 0.585,-0.127L0.604,-0.041C0.606,-0.034 0.6,-0.027 0.593,-0.027L0.589,-0.027C0.581,-0.027 0.575,-0.02 0.577,-0.012C0.578,-0.007 0.583,-0.003 0.589,-0.003L0.664,-0.003C0.672,-0.003 0.678,-0.01 0.676,-0.017ZM0.454,-0.054C0.407,-0.106 0.326,-0.211 0.233,-0.211C0.196,-0.211 0.208,-0.147 0.224,-0.107L0.32,0.148C0.323,0.157 0.326,0.168 0.322,0.177L0.499,0.177L0.411,-0.025C0.408,-0.035 0.405,-0.049 0.409,-0.054C0.473,-0.031 0.526,0.227 0.753,0.21L0.755,0.198C0.647,0.216 0.556,0.054 0.454,-0.054ZM0.5,0.5C0.224,0.5 0,0.276 0,-0C0,-0.276 0.224,-0.5 0.5,-0.5C0.776,-0.5 1,-0.276 1,-0C1,0.276 0.776,0.5 0.5,0.5Z" style="fill:url(#_Linear1);fill-rule:nonzero;"/>
                </g>
            </g>
        </g>
    </g>
    <defs>
        <linearGradient id="_Linear1" x1="0" y1="0" x2="1" y2="0" gradientUnits="userSpaceOnUse" gradientTransform="matrix(1,0,0,-1,0,-4.44089e-16)"><stop offset="0" style="stop-color:white;stop-opacity:1"/><stop offset="1" style="stop-color:rgb(196,198,200);stop-opacity:1"/></linearGradient>
    </defs>
</svg>
